<?xml version="1.0" encoding="utf-8"?>
<!-- Generator: Adobe Illustrator 20.1.0, SVG Export Plug-In . SVG Version: 6.00 Build 0)  -->
<svg version="1.1" id="Layer_1" xmlns="http://www.w3.org/2000/svg" xmlns:xlink="http://www.w3.org/1999/xlink" x="0px" y="0px"
	 viewBox="0 0 686.8 610.2" style="enable-background:new 0 0 686.8 610.2;" xml:space="preserve">
<path d="M343.4,27.3C190,27.3,65.6,151.7,65.6,305.1S190,582.9,343.4,582.9s277.8-124.4,277.8-277.8S496.8,27.3,343.4,27.3z
	 M210,367.7c-5.4,5.4-13.7,5.4-19.1,0c-58.3-58.3-58.3-153.3,0.5-212.1c2.4-2.4,5.9-3.9,9.3-3.9c3.4,0,6.9,1.5,9.3,3.9
	c5.4,5.4,5.4,13.7,0,19.1c-48,48-48,126.4,0,173.9C215.4,354,215.4,362.3,210,367.7z M258.9,314.3c5.4,5.4,5.4,13.7,0,19.1
	c-5.4,5.4-13.7,5.4-19.1,0c-39.2-39.7-39.2-103.4,0.5-143c2.4-2.4,5.9-3.9,9.3-3.9c3.4,0,6.9,1.5,9.3,3.9c5.4,5.4,5.4,13.7,0,19.1
	C230,238.4,230,285.4,258.9,314.3z M355.5,315.6V468c0,6.9-5.6,12.5-12.5,12.5s-12.5-5.6-12.5-12.5V315.4
	c-24.4-5.8-42.6-27.8-42.6-54c0-30.7,24.9-55.5,55.5-55.5c30.7,0,55.5,24.9,55.5,55.5C399,288,380.4,310.1,355.5,315.6z M437.2,337
	c-3.4,0-6.9-1.5-9.3-3.9c-5.4-5.4-5.4-13.7,0-19.1c28.9-28.9,28.9-75.9,0-104.8c-5.4-5.4-5.4-13.7,0-19.1c5.4-5.4,13.7-5.4,19.1,0
	c39.2,39.7,39.2,103.4-0.5,143C444,335.5,440.6,337,437.2,337z M495.4,367.8c-2.4,2.4-5.9,3.9-9.3,3.9c-3.4,0-6.9-1.5-9.3-3.9
	c-5.4-5.4-5.4-13.7,0-19.1c48-48,48-126.4,0-173.9c-5.4-5.4-5.4-13.7,0-19.1c5.4-5.4,13.7-5.4,19.1,0
	C554.2,214,554.2,309,495.4,367.8z"/>
</svg>
