<?xml version="1.0" encoding="utf-8"?>
<!-- Generator: Adobe Illustrator 20.1.0, SVG Export Plug-In . SVG Version: 6.00 Build 0)  -->
<svg version="1.1" id="Layer_1" xmlns="http://www.w3.org/2000/svg" xmlns:xlink="http://www.w3.org/1999/xlink" x="0px" y="0px"
	 viewBox="0 0 100 102.5" style="enable-background:new 0 0 100 102.5;" xml:space="preserve">
<style type="text/css">
	.st0{fill:#E9001F;}
</style>
<g>
	<path class="st0" d="M49,20.4c-5,0-9,4-9,9s4,9,9,9s9-4,9-9S54,20.4,49,20.4z"/>
	<path d="M73.1,2H24.9C19.3,2,15,6.3,15,11.7v76.6c0,5.4,4.3,9.7,9.9,9.7h48.2c5.6,0,9.9-4.3,9.9-9.7V11.7C83,6.3,78.7,2,73.1,2z
		 M49,84.3c-7.6,0-13.7-6.1-13.7-13.7c0-7.6,6.1-13.7,13.7-13.7S62.7,63,62.7,70.6C62.7,78.1,56.6,84.3,49,84.3z M49,43.1
		c-7.6,0-13.7-6.1-13.7-13.7c0-7.6,6.1-13.7,13.7-13.7s13.7,6.1,13.7,13.7C62.7,37,56.6,43.1,49,43.1z"/>
</g>
</svg>
