<?xml version="1.0" encoding="utf-8"?>
<!-- Generator: Adobe Illustrator 20.1.0, SVG Export Plug-In . SVG Version: 6.00 Build 0)  -->
<svg version="1.1" id="Layer_1" xmlns="http://www.w3.org/2000/svg" xmlns:xlink="http://www.w3.org/1999/xlink" x="0px" y="0px"
	 viewBox="0 0 1476.6 884.3" style="enable-background:new 0 0 1476.6 884.3;" xml:space="preserve">
<style type="text/css">
	.st0{fill:url(#SVGID_1_);}
	.st1{fill:url(#SVGID_2_);}
	.st2{fill:url(#SVGID_3_);}
	.st3{fill:url(#SVGID_4_);}
	.st4{fill:url(#SVGID_5_);}
	.st5{fill:url(#SVGID_6_);}
	.st6{fill:url(#SVGID_7_);}
	.st7{fill:none;stroke:#000000;stroke-width:2;stroke-miterlimit:10;}
	.st8{fill:none;stroke:#000000;stroke-width:0.5;stroke-miterlimit:10;}
</style>
<linearGradient id="SVGID_1_" gradientUnits="userSpaceOnUse" x1="188.1107" y1="469.3208" x2="336.2472" y2="715.8613">
	<stop  offset="0" style="stop-color:#E95B00"/>
	<stop  offset="5.914682e-02" style="stop-color:#EF7005"/>
	<stop  offset="0.1418" style="stop-color:#F5860B"/>
	<stop  offset="0.2395" style="stop-color:#F99710"/>
	<stop  offset="0.3602" style="stop-color:#FDA213"/>
	<stop  offset="0.5296" style="stop-color:#FEA915"/>
	<stop  offset="1" style="stop-color:#FFAB15"/>
</linearGradient>
<rect x="218.5" y="451.1" class="st0" width="87.3" height="283.1"/>
<linearGradient id="SVGID_2_" gradientUnits="userSpaceOnUse" x1="368.9168" y1="568.4782" x2="466.5841" y2="731.0238">
	<stop  offset="0" style="stop-color:#E95B00"/>
	<stop  offset="5.914682e-02" style="stop-color:#EF7005"/>
	<stop  offset="0.1418" style="stop-color:#F5860B"/>
	<stop  offset="0.2395" style="stop-color:#F99710"/>
	<stop  offset="0.3602" style="stop-color:#FDA213"/>
	<stop  offset="0.5296" style="stop-color:#FEA915"/>
	<stop  offset="1" style="stop-color:#FFAB15"/>
</linearGradient>
<rect x="374.1" y="565.4" class="st1" width="87.3" height="168.8"/>
<linearGradient id="SVGID_3_" gradientUnits="userSpaceOnUse" x1="487.8386" y1="428.6612" x2="656.6701" y2="709.6439">
	<stop  offset="0" style="stop-color:#E95B00"/>
	<stop  offset="5.914682e-02" style="stop-color:#EF7005"/>
	<stop  offset="0.1418" style="stop-color:#F5860B"/>
	<stop  offset="0.2395" style="stop-color:#F99710"/>
	<stop  offset="0.3602" style="stop-color:#FDA213"/>
	<stop  offset="0.5296" style="stop-color:#FEA915"/>
	<stop  offset="1" style="stop-color:#FFAB15"/>
</linearGradient>
<rect x="528.6" y="404.2" class="st2" width="87.3" height="329.9"/>
<linearGradient id="SVGID_4_" gradientUnits="userSpaceOnUse" x1="656.525" y1="527.3333" x2="775.1343" y2="724.7322">
	<stop  offset="0" style="stop-color:#E95B00"/>
	<stop  offset="5.914682e-02" style="stop-color:#EF7005"/>
	<stop  offset="0.1418" style="stop-color:#F5860B"/>
	<stop  offset="0.2395" style="stop-color:#F99710"/>
	<stop  offset="0.3602" style="stop-color:#FDA213"/>
	<stop  offset="0.5296" style="stop-color:#FEA915"/>
	<stop  offset="1" style="stop-color:#FFAB15"/>
</linearGradient>
<rect x="672.2" y="517.9" class="st3" width="87.3" height="216.2"/>
<linearGradient id="SVGID_5_" gradientUnits="userSpaceOnUse" x1="944.0831" y1="395.8464" x2="1129.6167" y2="704.6261">
	<stop  offset="0" style="stop-color:#E95B00"/>
	<stop  offset="5.914682e-02" style="stop-color:#EF7005"/>
	<stop  offset="0.1418" style="stop-color:#F5860B"/>
	<stop  offset="0.2395" style="stop-color:#F99710"/>
	<stop  offset="0.3602" style="stop-color:#FDA213"/>
	<stop  offset="0.5296" style="stop-color:#FEA915"/>
	<stop  offset="1" style="stop-color:#FFAB15"/>
</linearGradient>
<rect x="993.2" y="366.3" class="st4" width="87.3" height="367.8"/>
<linearGradient id="SVGID_6_" gradientUnits="userSpaceOnUse" x1="1158.0374" y1="641.2425" x2="1218.6689" y2="742.1505">
	<stop  offset="0" style="stop-color:#E95B00"/>
	<stop  offset="5.914682e-02" style="stop-color:#EF7005"/>
	<stop  offset="0.1418" style="stop-color:#F5860B"/>
	<stop  offset="0.2395" style="stop-color:#F99710"/>
	<stop  offset="0.3602" style="stop-color:#FDA213"/>
	<stop  offset="0.5296" style="stop-color:#FEA915"/>
	<stop  offset="1" style="stop-color:#FFAB15"/>
</linearGradient>
<rect x="1144.7" y="649.3" class="st5" width="87.3" height="84.9"/>
<linearGradient id="SVGID_7_" gradientUnits="userSpaceOnUse" x1="839.2208" y1="609.4325" x2="916.0431" y2="737.2863">
	<stop  offset="0" style="stop-color:#E95B00"/>
	<stop  offset="5.914682e-02" style="stop-color:#EF7005"/>
	<stop  offset="0.1418" style="stop-color:#F5860B"/>
	<stop  offset="0.2395" style="stop-color:#F99710"/>
	<stop  offset="0.3602" style="stop-color:#FDA213"/>
	<stop  offset="0.5296" style="stop-color:#FEA915"/>
	<stop  offset="1" style="stop-color:#FFAB15"/>
</linearGradient>
<rect x="834" y="612.6" class="st6" width="87.3" height="121.5"/>
<g>
	<line class="st7" x1="118.8" y1="270.6" x2="118.8" y2="734.9"/>
	<g>
		<polygon points="108.9,273.5 118.8,256.2 128.8,273.5 		"/>
	</g>
</g>
<g>
	<line class="st7" x1="1368.2" y1="733.6" x2="118.8" y2="733.6"/>
	<g>
		<polygon points="1365.3,723.7 1382.5,733.6 1365.3,743.6 		"/>
	</g>
</g>
<g>
	<path d="M563.8,218.8h-10l-3.4,8.7h-1.9l9.9-24.7h1.1l9.7,24.7h-1.9L563.8,218.8z M554.4,217.2h8.8l-3.3-8.9
		c-0.3-0.7-0.6-1.7-1-2.9c-0.3,1.1-0.6,2.1-1,2.9L554.4,217.2z"/>
	<path d="M578,227.5l-7.1-18.3h1.7l4.7,12.4c0.6,1.6,1.1,3,1.4,4.2h0.1c0.5-1.5,0.9-2.9,1.4-4.2l4.7-12.4h1.7l-7.1,18.3H578z"/>
	<path d="M599,227.8c-2.7,0-4.7-0.8-6.2-2.5c-1.5-1.6-2.2-3.9-2.2-6.9c0-2.9,0.7-5.3,2.2-7c1.4-1.8,3.4-2.6,5.8-2.6
		c2.2,0,3.9,0.8,5.1,2.3c1.2,1.5,1.9,3.5,1.9,6.1v1.3h-13.2c0,2.5,0.6,4.4,1.8,5.8c1.1,1.3,2.8,2,4.9,2c1,0,2-0.1,2.8-0.2
		c0.8-0.1,1.8-0.5,3-0.9v1.5c-1,0.4-2,0.8-2.9,0.9C601,227.7,600,227.8,599,227.8z M598.5,210.3c-1.8,0-3.2,0.6-4.2,1.7
		c-1.1,1.2-1.7,2.8-1.9,5h11.3c0-2.1-0.5-3.8-1.4-5C601.4,210.9,600.1,210.3,598.5,210.3z"/>
	<path d="M619.5,208.8c0.8,0,1.6,0.1,2.5,0.2l-0.3,1.6c-0.8-0.2-1.6-0.3-2.4-0.3c-1.6,0-2.8,0.7-3.8,2c-1,1.3-1.5,3-1.5,5v10.1h-1.7
		v-18.3h1.4l0.2,3.3h0.1c0.8-1.3,1.6-2.3,2.4-2.8C617.3,209.1,618.3,208.8,619.5,208.8z"/>
	<path d="M638.6,227.5l-0.4-2.9h-0.1c-0.9,1.2-1.9,2-2.8,2.5c-1,0.5-2.1,0.7-3.4,0.7c-1.8,0-3.2-0.5-4.2-1.4c-1-0.9-1.5-2.2-1.5-3.8
		c0-1.8,0.7-3.2,2.2-4.2c1.5-1,3.6-1.5,6.5-1.6l3.5-0.1v-1.2c0-1.7-0.4-3.1-1.1-3.9c-0.7-0.9-1.8-1.3-3.4-1.3
		c-1.7,0-3.4,0.5-5.3,1.4l-0.6-1.4c2-0.9,4-1.4,6-1.4c2,0,3.5,0.5,4.5,1.6c1,1,1.5,2.7,1.5,4.9v12.2H638.6z M631.9,226.3
		c2,0,3.5-0.6,4.6-1.7c1.1-1.1,1.7-2.7,1.7-4.7v-1.8l-3.2,0.1c-2.6,0.1-4.4,0.5-5.5,1.2c-1.1,0.7-1.6,1.7-1.6,3.2
		c0,1.1,0.4,2,1.1,2.7C629.6,226,630.6,226.3,631.9,226.3z"/>
	<path d="M661.8,209.2v1.2l-3.8,0.2c1,1.3,1.5,2.6,1.5,4.1c0,1.8-0.6,3.2-1.8,4.3c-1.2,1.1-2.7,1.6-4.7,1.6c-0.8,0-1.4,0-1.7-0.1
		c-0.7,0.3-1.2,0.8-1.5,1.2c-0.3,0.5-0.5,1-0.5,1.5c0,0.6,0.2,1,0.7,1.3c0.4,0.3,1.2,0.4,2.2,0.4h3.2c2,0,3.5,0.4,4.6,1.2
		c1.1,0.8,1.6,2,1.6,3.6c0,1.9-0.8,3.4-2.3,4.5c-1.6,1-3.8,1.6-6.7,1.6c-2.3,0-4.1-0.4-5.3-1.3c-1.3-0.9-1.9-2.1-1.9-3.7
		c0-1.3,0.4-2.3,1.2-3.1c0.8-0.8,1.8-1.4,3.2-1.7c-0.5-0.2-1-0.6-1.3-1c-0.3-0.4-0.5-0.9-0.5-1.5c0-1.2,0.8-2.3,2.3-3.2
		c-1.1-0.4-1.9-1.1-2.5-2.1c-0.6-0.9-0.9-2-0.9-3.2c0-1.8,0.6-3.3,1.7-4.4c1.2-1.1,2.7-1.7,4.7-1.7c1.2,0,2.1,0.1,2.8,0.4H661.8z
		 M647,230.5c0,2.5,1.9,3.8,5.6,3.8c4.8,0,7.2-1.5,7.2-4.6c0-1.1-0.4-1.9-1.1-2.4c-0.8-0.5-2-0.7-3.7-0.7h-3
		C648.7,226.6,647,227.9,647,230.5z M648.4,214.9c0,1.4,0.4,2.5,1.3,3.3c0.9,0.8,2,1.2,3.4,1.2c1.5,0,2.7-0.4,3.5-1.2
		c0.8-0.8,1.2-1.9,1.2-3.4c0-1.6-0.4-2.7-1.3-3.5c-0.8-0.8-2-1.2-3.5-1.2c-1.5,0-2.6,0.4-3.4,1.3
		C648.8,212.2,648.4,213.4,648.4,214.9z"/>
	<path d="M674.8,227.8c-2.7,0-4.7-0.8-6.2-2.5c-1.5-1.6-2.2-3.9-2.2-6.9c0-2.9,0.7-5.3,2.2-7c1.4-1.8,3.4-2.6,5.8-2.6
		c2.2,0,3.9,0.8,5.1,2.3c1.2,1.5,1.9,3.5,1.9,6.1v1.3h-13.2c0,2.5,0.6,4.4,1.8,5.8c1.1,1.3,2.8,2,4.9,2c1,0,2-0.1,2.8-0.2
		c0.8-0.1,1.8-0.5,3-0.9v1.5c-1,0.4-2,0.8-2.9,0.9C676.8,227.7,675.8,227.8,674.8,227.8z M674.3,210.3c-1.8,0-3.2,0.6-4.2,1.7
		c-1.1,1.2-1.7,2.8-1.9,5h11.3c0-2.1-0.5-3.8-1.4-5C677.2,210.9,675.9,210.3,674.3,210.3z"/>
	<path d="M699.2,202.9h6.7c3,0,5.3,0.5,6.7,1.5c1.4,1,2.1,2.6,2.1,4.7c0,1.4-0.4,2.6-1.3,3.6c-0.9,0.9-2.1,1.6-3.8,1.8v0.1
		c2,0.3,3.4,0.9,4.3,1.9c0.9,0.9,1.4,2.3,1.4,4c0,2.3-0.8,4-2.3,5.2c-1.5,1.2-3.6,1.8-6.4,1.8h-7.5V202.9z M701,213.8h5.4
		c2.3,0,4-0.4,5-1.2c1-0.8,1.6-2,1.6-3.6c0-1.6-0.6-2.8-1.8-3.6c-1.2-0.7-2.9-1.1-5.3-1.1h-5V213.8z M701,215.3v10.6h5.8
		c4.6,0,6.8-1.9,6.8-5.6c0-3.4-2.4-5.1-7.2-5.1H701z"/>
	<path d="M723.9,227.5h-1.7v-26.2h1.7V227.5z"/>
	<path d="M746.9,218.3c0,3-0.7,5.3-2.2,7c-1.4,1.7-3.4,2.5-6,2.5c-1.6,0-3-0.4-4.2-1.2c-1.2-0.8-2.2-1.9-2.8-3.3c-0.7-1.4-1-3.1-1-5
		c0-3,0.7-5.3,2.2-7c1.4-1.7,3.4-2.5,6-2.5c2.5,0,4.5,0.8,5.9,2.5C746.2,213,746.9,215.3,746.9,218.3z M732.5,218.3
		c0,2.5,0.6,4.5,1.7,5.9c1.1,1.4,2.7,2.1,4.7,2.1s3.6-0.7,4.7-2.1c1.1-1.4,1.7-3.4,1.7-5.9c0-2.5-0.6-4.5-1.7-5.9
		c-1.1-1.4-2.7-2.1-4.7-2.1c-2,0-3.6,0.7-4.7,2.1C733,213.8,732.5,215.7,732.5,218.3z"/>
	<path d="M761.1,227.8c-2.6,0-4.7-0.8-6.1-2.5s-2.2-3.9-2.2-6.9c0-3,0.8-5.4,2.3-7.1c1.5-1.7,3.6-2.5,6.3-2.5c1.6,0,3.1,0.3,4.5,0.8
		l-0.5,1.5c-1.6-0.5-3-0.8-4.1-0.8c-2.2,0-3.9,0.7-5.1,2.1c-1.2,1.4-1.7,3.4-1.7,6c0,2.5,0.6,4.4,1.7,5.8c1.2,1.4,2.8,2.1,4.8,2.1
		c1.7,0,3.2-0.3,4.6-0.9v1.5C764.5,227.5,763,227.8,761.1,227.8z"/>
	<path d="M773.6,219.4l9.3-10.3h2l-7.2,7.8l7.8,10.5h-2l-6.9-9.2l-3,2.7v6.5h-1.7v-26.2h1.7v13.1L773.6,219.4L773.6,219.4z"/>
	<path d="M790.2,204.1c0-1.1,0.4-1.6,1.1-1.6c0.3,0,0.6,0.1,0.8,0.4c0.2,0.3,0.3,0.7,0.3,1.2c0,0.5-0.1,0.9-0.3,1.2
		c-0.2,0.3-0.5,0.4-0.8,0.4C790.5,205.7,790.2,205.2,790.2,204.1z M792.1,227.5h-1.7v-18.3h1.7V227.5z"/>
	<path d="M812.7,227.5v-11.9c0-1.8-0.4-3.2-1.2-4c-0.8-0.8-2-1.3-3.6-1.3c-2.2,0-3.8,0.6-4.8,1.7c-1,1.1-1.5,2.9-1.5,5.4v10.1H800
		v-18.3h1.4l0.3,2.5h0.1c1.2-1.9,3.3-2.9,6.3-2.9c4.2,0,6.2,2.2,6.2,6.7v12H812.7z"/>
	<path d="M836.4,209.2v1.2l-3.8,0.2c1,1.3,1.5,2.6,1.5,4.1c0,1.8-0.6,3.2-1.8,4.3c-1.2,1.1-2.7,1.6-4.7,1.6c-0.8,0-1.4,0-1.7-0.1
		c-0.7,0.3-1.2,0.8-1.5,1.2c-0.3,0.5-0.5,1-0.5,1.5c0,0.6,0.2,1,0.7,1.3c0.4,0.3,1.2,0.4,2.2,0.4h3.2c2,0,3.5,0.4,4.6,1.2
		c1.1,0.8,1.6,2,1.6,3.6c0,1.9-0.8,3.4-2.3,4.5c-1.6,1-3.8,1.6-6.7,1.6c-2.3,0-4.1-0.4-5.3-1.3c-1.3-0.9-1.9-2.1-1.9-3.7
		c0-1.3,0.4-2.3,1.2-3.1c0.8-0.8,1.8-1.4,3.2-1.7c-0.5-0.2-1-0.6-1.3-1c-0.3-0.4-0.5-0.9-0.5-1.5c0-1.2,0.8-2.3,2.3-3.2
		c-1.1-0.4-1.9-1.1-2.5-2.1c-0.6-0.9-0.9-2-0.9-3.2c0-1.8,0.6-3.3,1.7-4.4c1.2-1.1,2.7-1.7,4.7-1.7c1.2,0,2.1,0.1,2.8,0.4H836.4z
		 M821.6,230.5c0,2.5,1.9,3.8,5.6,3.8c4.8,0,7.2-1.5,7.2-4.6c0-1.1-0.4-1.9-1.1-2.4c-0.8-0.5-2-0.7-3.7-0.7h-3
		C823.2,226.6,821.6,227.9,821.6,230.5z M823,214.9c0,1.4,0.4,2.5,1.3,3.3c0.9,0.8,2,1.2,3.4,1.2c1.5,0,2.7-0.4,3.5-1.2
		c0.8-0.8,1.2-1.9,1.2-3.4c0-1.6-0.4-2.7-1.3-3.5c-0.8-0.8-2-1.2-3.5-1.2c-1.5,0-2.6,0.4-3.4,1.3C823.4,212.2,823,213.4,823,214.9z"
		/>
	<path d="M859.5,227.5h-1.7v-23h-8v-1.6h17.7v1.6h-8V227.5z"/>
	<path d="M872.3,204.1c0-1.1,0.4-1.6,1.1-1.6c0.3,0,0.6,0.1,0.8,0.4c0.2,0.3,0.3,0.7,0.3,1.2c0,0.5-0.1,0.9-0.3,1.2
		c-0.2,0.3-0.5,0.4-0.8,0.4C872.6,205.7,872.3,205.2,872.3,204.1z M874.2,227.5h-1.7v-18.3h1.7V227.5z"/>
	<path d="M904.9,227.5v-12c0-1.8-0.3-3.1-1-3.9c-0.7-0.8-1.8-1.2-3.2-1.2c-1.9,0-3.3,0.5-4.2,1.5c-0.9,1-1.3,2.7-1.3,4.9v10.7h-1.7
		V215c0-3.1-1.4-4.6-4.2-4.6c-1.9,0-3.3,0.6-4.2,1.7c-0.9,1.1-1.3,2.9-1.3,5.4v10.1h-1.7v-18.3h1.4l0.4,2.5h0.1
		c0.5-0.9,1.2-1.6,2.2-2.1c0.9-0.5,2-0.7,3.1-0.7c2.9,0,4.7,1.1,5.6,3.2h0.1c0.6-1,1.4-1.8,2.4-2.4c1-0.6,2.1-0.8,3.4-0.8
		c2,0,3.5,0.5,4.5,1.6c1,1.1,1.5,2.8,1.5,5.1v12H904.9z"/>
	<path d="M921.7,227.8c-2.7,0-4.7-0.8-6.2-2.5c-1.5-1.6-2.2-3.9-2.2-6.9c0-2.9,0.7-5.3,2.2-7c1.4-1.8,3.4-2.6,5.8-2.6
		c2.2,0,3.9,0.8,5.1,2.3c1.2,1.5,1.9,3.5,1.9,6.1v1.3H915c0,2.5,0.6,4.4,1.8,5.8c1.1,1.3,2.8,2,4.9,2c1,0,2-0.1,2.8-0.2
		c0.8-0.1,1.8-0.5,3-0.9v1.5c-1,0.4-2,0.8-2.9,0.9C923.7,227.7,922.7,227.8,921.7,227.8z M921.2,210.3c-1.8,0-3.2,0.6-4.2,1.7
		c-1.1,1.2-1.7,2.8-1.9,5h11.3c0-2.1-0.5-3.8-1.4-5C924.1,210.9,922.8,210.3,921.2,210.3z"/>
</g>
<g>
	<line class="st8" x1="99.9" y1="732.5" x2="118.8" y2="732.5"/>
	<line class="st8" x1="99.9" y1="641.5" x2="118.8" y2="641.5"/>
	<line class="st8" x1="99.9" y1="550.5" x2="118.8" y2="550.5"/>
	<line class="st8" x1="99.9" y1="459.5" x2="118.8" y2="459.5"/>
	<line class="st8" x1="99.9" y1="377.5" x2="118.8" y2="377.5"/>
</g>
<g>
	<path d="M88.7,736.6c0,3.7-0.6,6.5-1.8,8.3s-3,2.7-5.5,2.7c-2.4,0-4.2-0.9-5.4-2.8s-1.8-4.6-1.8-8.2c0-3.8,0.6-6.6,1.8-8.4
		s3-2.7,5.5-2.7c2.4,0,4.2,0.9,5.4,2.8S88.7,733,88.7,736.6z M77.6,736.6c0,2.9,0.3,5,0.9,6.3s1.6,1.9,2.9,1.9s2.3-0.6,2.9-1.9
		s0.9-3.3,0.9-6.2c0-2.9-0.3-4.9-0.9-6.2s-1.6-1.9-2.9-1.9s-2.3,0.6-2.9,1.9S77.6,733.7,77.6,736.6z"/>
</g>
<g>
	<path d="M81.4,638.5c2.2,0,3.9,0.6,5.1,1.7s1.9,2.7,1.9,4.7c0,2.3-0.7,4.1-2.1,5.4s-3.5,1.9-6.1,1.9c-2.4,0-4.3-0.4-5.6-1.2v-3.1
		c0.8,0.4,1.7,0.8,2.7,1s2,0.4,2.9,0.4c1.6,0,2.7-0.3,3.5-1s1.2-1.7,1.2-3c0-2.6-1.6-3.8-4.9-3.8c-0.5,0-1,0-1.7,0.1
		s-1.3,0.2-1.8,0.3l-1.5-0.9l0.8-10.5H87v3.1h-8.1l-0.5,5.3c0.3-0.1,0.8-0.1,1.3-0.2S80.7,638.5,81.4,638.5z"/>
</g>
<g>
	<path d="M67.6,561.1h-3.4v-13.8c0-1.7,0-3,0.1-3.9c-0.2,0.2-0.5,0.5-0.8,0.8s-1.4,1.2-3.3,2.7l-1.7-2.2l6.3-5h2.9V561.1z"/>
	<path d="M90.7,550.4c0,3.7-0.6,6.5-1.8,8.3s-3,2.7-5.5,2.7c-2.4,0-4.2-0.9-5.4-2.8s-1.8-4.6-1.8-8.2c0-3.8,0.6-6.6,1.8-8.4
		s3-2.7,5.5-2.7c2.4,0,4.2,0.9,5.4,2.8S90.7,546.8,90.7,550.4z M79.6,550.4c0,2.9,0.3,5,0.9,6.3s1.6,1.9,2.9,1.9s2.3-0.6,2.9-1.9
		s0.9-3.3,0.9-6.2c0-2.9-0.3-4.9-0.9-6.2s-1.6-1.9-2.9-1.9s-2.3,0.6-2.9,1.9S79.6,547.5,79.6,550.4z"/>
</g>
<g>
	<path d="M68.5,469.4H65v-13.8c0-1.7,0-3,0.1-3.9c-0.2,0.2-0.5,0.5-0.8,0.8c-0.3,0.3-1.4,1.2-3.3,2.7l-1.7-2.2l6.3-5h2.9V469.4z"/>
	<path d="M84.3,456c2.2,0,3.9,0.6,5.1,1.7s1.9,2.7,1.9,4.7c0,2.3-0.7,4.1-2.1,5.4s-3.5,1.9-6.1,1.9c-2.4,0-4.3-0.4-5.6-1.2v-3.1
		c0.8,0.4,1.7,0.8,2.7,1s2,0.4,2.9,0.4c1.6,0,2.7-0.3,3.5-1s1.2-1.7,1.2-3c0-2.6-1.6-3.8-4.9-3.8c-0.5,0-1,0-1.7,0.1
		s-1.3,0.2-1.8,0.3l-1.5-0.9l0.8-10.5h11.1v3.1h-8.1l-0.5,5.3c0.3-0.1,0.8-0.1,1.3-0.2S83.6,456,84.3,456z"/>
</g>
<g>
	<path d="M72.9,385.3H58.4v-2.6l5.5-5.6c1.6-1.7,2.7-2.9,3.2-3.6s0.9-1.4,1.2-2s0.4-1.3,0.4-2c0-1-0.3-1.7-0.9-2.3s-1.4-0.8-2.4-0.8
		c-0.8,0-1.6,0.2-2.4,0.5s-1.7,0.8-2.7,1.6l-1.9-2.3c1.2-1,2.3-1.7,3.5-2.1s2.3-0.6,3.6-0.6c2,0,3.6,0.5,4.8,1.6s1.8,2.4,1.8,4.2
		c0,1-0.2,1.9-0.5,2.8s-0.9,1.8-1.6,2.7s-1.9,2.2-3.6,3.7l-3.7,3.6v0.1h10.2V385.3z"/>
	<path d="M91.6,374.6c0,3.7-0.6,6.5-1.8,8.3s-3,2.7-5.5,2.7c-2.4,0-4.2-0.9-5.4-2.8s-1.8-4.6-1.8-8.2c0-3.8,0.6-6.6,1.8-8.4
		s3-2.7,5.5-2.7c2.4,0,4.2,0.9,5.4,2.8S91.6,371,91.6,374.6z M80.5,374.6c0,2.9,0.3,5,0.9,6.3s1.6,1.9,2.9,1.9s2.3-0.6,2.9-1.9
		s0.9-3.3,0.9-6.2c0-2.9-0.3-4.9-0.9-6.2s-1.6-1.9-2.9-1.9s-2.3,0.6-2.9,1.9S80.5,371.7,80.5,374.6z"/>
</g>
<g>
	<path d="M235.3,790.4l-6.2-17.9H229c0.2,2.7,0.2,5.1,0.2,7.5v10.4H226V769h4.9l5.9,17h0.1l6.1-17h5v21.4h-3.4v-10.6
		c0-1.1,0-2.5,0.1-4.2s0.1-2.7,0.1-3.1h-0.1l-6.4,17.9H235.3z"/>
	<path d="M274.3,779.7c0,3.5-0.9,6.2-2.6,8.1s-4.2,2.9-7.4,2.9c-3.2,0-5.7-1-7.4-2.9s-2.6-4.6-2.6-8.2s0.9-6.2,2.6-8.1
		s4.2-2.8,7.5-2.8c3.2,0,5.6,1,7.4,2.9S274.3,776.2,274.3,779.7z M258,779.7c0,2.6,0.5,4.6,1.6,6s2.6,2,4.7,2c2.1,0,3.6-0.7,4.7-2
		s1.6-3.4,1.6-6c0-2.6-0.5-4.6-1.6-6s-2.6-2-4.7-2c-2.1,0-3.7,0.7-4.8,2S258,777.1,258,779.7z"/>
	<path d="M298.3,790.4H294l-10.5-17.1h-0.1l0.1,1c0.1,1.8,0.2,3.5,0.2,5v11.1h-3.2V769h4.2l10.5,17h0.1c0-0.2-0.1-1-0.1-2.5
		s-0.1-2.5-0.1-3.3V769h3.2V790.4z"/>
</g>
<g>
	<path d="M401,790.4h-3.5V772h-6.3v-3h16.1v3H401V790.4z"/>
	<path d="M429,769v13.9c0,1.6-0.3,3-1,4.2s-1.7,2.1-2.9,2.7s-2.8,1-4.6,1c-2.7,0-4.7-0.7-6.2-2.1s-2.2-3.3-2.2-5.8V769h3.5v13.5
		c0,1.8,0.4,3.1,1.2,3.9s2.1,1.3,3.8,1.3c3.3,0,5-1.7,5-5.2V769H429z"/>
	<path d="M448.1,790.4H436V769h12.1v3h-8.6v5.8h8.1v2.9h-8.1v6.7h8.6V790.4z"/>
</g>
<g>
	<path d="M561.9,790.4h-3.8l-3.6-12.8c-0.2-0.6-0.4-1.4-0.6-2.4s-0.4-1.8-0.4-2.2c-0.1,0.6-0.3,1.4-0.5,2.4s-0.4,1.7-0.5,2.2
		l-3.5,12.7H545l-2.8-10.7l-2.8-10.7h3.6l3.1,12.5c0.5,2,0.8,3.8,1,5.3c0.1-0.8,0.3-1.8,0.5-2.8s0.4-1.9,0.6-2.5l3.5-12.5h3.5
		l3.6,12.6c0.3,1.2,0.7,2.9,1.1,5.2c0.1-1.4,0.5-3.2,1.1-5.3l3-12.5h3.5L561.9,790.4z"/>
	<path d="M584.2,790.4H572V769h12.1v3h-8.6v5.8h8.1v2.9h-8.1v6.7h8.6V790.4z"/>
	<path d="M607.8,779.5c0,3.5-1,6.2-2.9,8.1s-4.8,2.8-8.5,2.8h-6V769h6.6c3.4,0,6.1,0.9,8,2.8S607.8,776.2,607.8,779.5z M604.1,779.6
		c0-5.1-2.4-7.7-7.2-7.7h-3v15.5h2.5C601.5,787.5,604.1,784.9,604.1,779.6z"/>
</g>
<g>
	<path d="M693.6,790.4h-3.5V772h-6.3v-3h16.1v3h-6.3V790.4z"/>
	<path d="M721.6,790.4h-3.5v-9.7h-9.9v9.7h-3.5V769h3.5v8.8h9.9V769h3.5V790.4z"/>
	<path d="M745.6,769v13.9c0,1.6-0.3,3-1,4.2s-1.7,2.1-2.9,2.7s-2.8,1-4.6,1c-2.7,0-4.7-0.7-6.2-2.1s-2.2-3.3-2.2-5.8V769h3.5v13.5
		c0,1.8,0.4,3.1,1.2,3.9s2.1,1.3,3.8,1.3c3.3,0,5-1.7,5-5.2V769H745.6z"/>
</g>
<g>
	<path d="M860.2,790.4h-3.5V769h12.1v3h-8.6v6.7h8.1v3h-8.1V790.4z"/>
	<path d="M877.8,781.9v8.6h-3.5V769h6c2.8,0,4.8,0.5,6.1,1.6s2,2.6,2,4.7c0,2.7-1.4,4.6-4.2,5.7l6,9.5h-4l-5.1-8.6H877.8z
		 M877.8,779h2.4c1.6,0,2.8-0.3,3.5-0.9s1.1-1.5,1.1-2.7c0-1.2-0.4-2.1-1.2-2.6s-2-0.8-3.6-0.8h-2.3V779z"/>
	<path d="M895,790.4V769h3.5v21.4H895z"/>
</g>
<g>
	<path d="M1023.8,784.6c0,1.9-0.7,3.4-2.1,4.5s-3.3,1.6-5.7,1.6s-4.4-0.4-5.9-1.1v-3.3c1,0.5,2,0.8,3.1,1.1s2.1,0.4,3.1,0.4
		c1.4,0,2.4-0.3,3.1-0.8s1-1.2,1-2.1c0-0.8-0.3-1.5-0.9-2s-1.9-1.2-3.8-2c-2-0.8-3.3-1.7-4.1-2.7s-1.2-2.2-1.2-3.7
		c0-1.8,0.6-3.2,1.9-4.2s3-1.5,5.1-1.5c2.1,0,4.1,0.4,6.1,1.3l-1.1,2.9c-1.9-0.8-3.6-1.2-5.1-1.2c-1.1,0-2,0.2-2.6,0.7
		s-0.9,1.1-0.9,2c0,0.6,0.1,1,0.4,1.4s0.6,0.8,1.2,1.1s1.5,0.8,2.9,1.4c1.6,0.7,2.7,1.3,3.5,1.8s1.3,1.2,1.6,1.9
		S1023.8,783.6,1023.8,784.6z"/>
	<path d="M1042.8,790.4l-2.1-5.9h-8.2l-2.1,5.9h-3.7l8-21.5h3.8l8,21.5H1042.8z M1039.7,781.5l-2-5.8c-0.1-0.4-0.3-1-0.6-1.8
		s-0.4-1.5-0.5-1.8c-0.3,1.2-0.6,2.5-1.2,3.9l-1.9,5.6H1039.7z"/>
	<path d="M1058.3,790.4h-3.5V772h-6.3v-3h16.1v3h-6.3V790.4z"/>
</g>
<g>
	<path d="M1170.8,784.6c0,1.9-0.7,3.4-2.1,4.5s-3.3,1.6-5.7,1.6s-4.4-0.4-5.9-1.1v-3.3c1,0.5,2,0.8,3.1,1.1s2.1,0.4,3.1,0.4
		c1.4,0,2.4-0.3,3.1-0.8s1-1.2,1-2.1c0-0.8-0.3-1.5-0.9-2s-1.9-1.2-3.8-2c-2-0.8-3.3-1.7-4.1-2.7s-1.2-2.2-1.2-3.7
		c0-1.8,0.6-3.2,1.9-4.2s3-1.5,5.1-1.5c2.1,0,4.1,0.4,6.1,1.3l-1.1,2.9c-1.9-0.8-3.6-1.2-5.1-1.2c-1.1,0-2,0.2-2.6,0.7
		s-0.9,1.1-0.9,2c0,0.6,0.1,1,0.4,1.4s0.6,0.8,1.2,1.1s1.5,0.8,2.9,1.4c1.6,0.7,2.7,1.3,3.5,1.8s1.3,1.2,1.6,1.9
		S1170.8,783.6,1170.8,784.6z"/>
	<path d="M1193.3,769v13.9c0,1.6-0.3,3-1,4.2s-1.7,2.1-2.9,2.7s-2.8,1-4.6,1c-2.7,0-4.7-0.7-6.2-2.1s-2.2-3.3-2.2-5.8V769h3.5v13.5
		c0,1.8,0.4,3.1,1.2,3.9s2.1,1.3,3.8,1.3c3.3,0,5-1.7,5-5.2V769H1193.3z"/>
	<path d="M1218.2,790.4h-4.3l-10.5-17.1h-0.1l0.1,1c0.1,1.8,0.2,3.5,0.2,5v11.1h-3.2V769h4.2l10.5,17h0.1c0-0.2-0.1-1-0.1-2.5
		s-0.1-2.5-0.1-3.3V769h3.2V790.4z"/>
</g>
</svg>
